<?xml version="1.0" standalone="no"?>
<!DOCTYPE svg PUBLIC "-//W3C//DTD SVG 20010904//EN"
 "http://www.w3.org/TR/2001/REC-SVG-20010904/DTD/svg10.dtd">
<svg version="1.0" xmlns="http://www.w3.org/2000/svg"
 width="1280.000000pt" height="960.000000pt" viewBox="0 0 1280.000000 960.000000"
 preserveAspectRatio="xMidYMid meet">

<g transform="translate(0.000000,960.000000) scale(0.100000,-0.100000)"
fill="#000000" stroke="none">
<path d="M0 5629 l0 -3970 98 6 c53 3 135 10 182 15 91 10 132 13 360 30 80 6
159 13 175 15 17 2 66 6 110 10 44 3 109 10 145 15 36 6 97 12 135 14 39 2
115 9 170 15 155 17 382 40 465 47 41 3 79 7 84 8 15 2 24 -59 31 -198 3 -72
8 -133 11 -137 4 -7 15 -116 69 -664 8 -82 22 -231 30 -330 19 -226 34 -357
41 -364 3 -3 13 0 22 7 9 7 27 16 39 22 21 9 27 26 24 70 -1 20 -39 422 -46
480 -2 25 -13 139 -25 255 -11 116 -22 230 -24 255 -3 25 -17 173 -31 330 -14
157 -29 304 -34 327 -8 38 -7 41 9 33 20 -11 31 -4 23 16 -3 8 0 14 5 14 12 0
18 -18 26 -70 6 -39 8 -56 36 -375 11 -126 25 -238 31 -248 5 -10 7 -22 4 -27
-3 -5 -3 -25 1 -44 6 -33 8 -35 44 -34 21 0 43 -3 49 -7 6 -3 10 -1 9 5 -2 8
22 18 62 26 36 8 78 18 94 24 63 22 121 3 60 -20 -26 -10 -73 -44 -164 -121
-30 -26 -74 -56 -98 -68 -40 -21 -42 -23 -37 -59 3 -20 23 -224 45 -452 22
-228 43 -430 46 -447 l5 -33 5259 0 5260 0 0 4800 0 4800 -6400 0 -6400 0 0
-3971z m6647 2077 c23 2 45 -1 48 -7 4 -5 14 -5 26 1 14 8 19 7 19 -2 0 -9 3
-9 11 -1 7 7 18 8 28 3 9 -5 33 -17 54 -26 23 -10 36 -22 33 -30 -3 -7 10 -19
30 -29 19 -9 34 -22 34 -30 0 -8 7 -15 15 -15 8 0 15 -3 15 -8 0 -4 14 -13 30
-20 17 -8 28 -18 24 -23 -3 -5 2 -9 10 -9 9 0 16 -4 16 -9 0 -5 8 -12 18 -15
18 -6 42 -57 42 -88 0 -9 6 -21 14 -27 10 -9 12 -20 6 -42 -5 -16 -10 -31 -12
-33 -2 -2 6 -13 16 -25 11 -12 16 -21 12 -21 -3 0 1 -11 10 -25 9 -13 16 -40
17 -59 0 -19 5 -33 9 -30 4 3 8 -6 8 -20 0 -14 5 -26 10 -26 6 0 10 -11 10
-24 0 -13 4 -26 10 -28 5 -1 12 -29 14 -62 2 -32 9 -62 15 -65 6 -4 12 -16 13
-27 2 -10 11 -30 21 -44 9 -13 17 -33 17 -43 0 -10 4 -15 10 -12 6 4 7 -1 3
-10 -3 -10 -2 -20 3 -24 5 -3 18 -26 28 -51 10 -25 38 -85 61 -135 38 -80 55
-119 60 -135 0 -3 8 -30 17 -60 14 -47 17 -110 16 -421 0 -201 3 -385 7 -407
7 -41 15 -48 55 -42 22 3 22 3 11 49 -5 22 -5 41 -1 41 5 0 6 8 4 18 -3 10 3
22 15 29 24 15 34 2 46 -57 4 -19 11 -40 16 -46 10 -13 -28 -124 -42 -124 -10
0 -49 -37 -49 -45 0 -3 17 -5 38 -5 31 0 41 5 52 25 13 24 29 32 73 39 9 1 27
14 40 29 23 27 23 28 11 135 -7 59 -12 109 -11 112 2 14 -36 81 -65 114 -10
11 -18 24 -18 28 0 5 -4 6 -10 3 -5 -3 -10 0 -10 9 0 8 -5 16 -12 18 -15 5 15
101 43 136 10 14 19 31 19 38 0 17 31 33 58 31 14 -1 22 -8 22 -20 0 -10 4
-27 10 -37 5 -10 12 -37 15 -61 3 -24 12 -66 19 -94 8 -27 19 -84 26 -125 6
-41 12 -76 14 -78 2 -2 9 14 16 35 7 21 16 42 21 47 5 6 9 25 9 42 0 18 5 36
10 39 22 13 3 270 -23 303 -14 18 -51 15 -81 -9 l-26 -20 -12 26 c-9 21 -9 31
0 46 7 10 12 25 12 33 0 25 49 56 79 50 25 -6 65 -43 87 -80 8 -13 21 -18 45
-16 35 2 384 33 874 77 154 13 397 36 540 50 143 13 310 29 370 35 129 11 512
47 605 56 89 9 198 10 206 1 4 -4 9 -27 12 -52 3 -34 0 -51 -13 -65 -18 -20
-18 -9 15 -380 6 -63 13 -151 15 -194 3 -44 7 -93 10 -110 3 -17 10 -89 15
-161 5 -71 18 -233 29 -360 22 -248 43 -511 66 -835 9 -113 20 -265 25 -338 6
-73 8 -137 5 -142 -7 -12 -76 -31 -87 -24 -4 3 -8 0 -8 -6 0 -6 -5 -8 -12 -4
-6 4 -8 3 -5 -3 4 -6 25 -9 47 -7 31 3 40 0 40 -12 0 -9 5 -12 13 -8 6 4 2 -4
-10 -17 l-22 -23 -163 13 c-90 7 -181 15 -203 17 -22 3 -46 5 -52 6 -8 1 -11
11 -9 25 5 26 -22 47 -48 37 -9 -3 -16 -1 -16 6 0 6 6 8 13 5 6 -4 1 3 -12 14
-13 12 -32 21 -42 21 -10 0 -19 5 -19 10 0 6 -7 10 -16 10 -9 0 -27 9 -41 20
-14 11 -36 20 -49 20 -12 0 -35 5 -51 12 -15 6 -37 12 -48 12 -12 1 -20 8 -20
18 0 20 -152 131 -166 122 -5 -3 -9 1 -9 9 0 18 -147 92 -216 108 -63 14 -209
14 -504 -1 -329 -17 -433 -18 -453 -2 -8 7 -26 14 -39 16 -13 1 -31 6 -42 11
-11 5 -26 4 -37 -3 -10 -6 -37 -15 -61 -18 -24 -4 -56 -14 -73 -22 -42 -21
-152 -129 -176 -172 -23 -40 -91 -90 -124 -90 -11 0 -32 7 -47 14 -15 8 -62
20 -105 26 -81 12 -228 66 -275 100 -15 11 -31 20 -36 20 -5 0 -25 -36 -45
-81 -20 -44 -57 -118 -82 -162 -57 -103 -60 -108 -72 -132 -17 -35 -48 -90
-53 -95 -12 -11 -38 -75 -34 -82 3 -4 -1 -8 -8 -8 -7 0 -20 -23 -30 -50 -9
-28 -12 -47 -7 -44 5 3 9 0 9 -5 0 -6 -4 -11 -10 -11 -5 0 -7 -8 -3 -17 3 -10
3 -15 -2 -11 -4 4 -18 -11 -29 -35 -23 -45 -34 -50 -51 -21 -5 10 -18 25 -27
32 -10 7 -18 19 -18 25 0 16 -92 117 -107 117 -6 0 -17 7 -24 16 -24 29 -88
64 -116 64 -36 0 -58 14 -48 30 6 10 -1 12 -34 6 -40 -6 -41 -5 -29 14 7 11
18 20 25 20 7 0 13 5 13 10 0 6 -9 10 -19 10 -28 0 -52 11 -45 21 3 5 -9 9
-25 9 -18 0 -31 5 -31 13 0 6 31 39 67 72 37 33 92 86 124 118 32 31 62 57 67
57 17 0 157 151 157 170 1 25 11 35 21 19 5 -8 3 -10 -6 -4 -9 5 -11 4 -6 -4
4 -6 12 -9 17 -5 5 3 7 9 4 14 -5 9 19 32 27 25 2 -3 5 2 5 10 0 8 -5 11 -10
8 -6 -3 -7 -1 -3 5 4 7 14 12 22 12 9 0 12 -5 8 -12 -4 -7 -3 -8 4 -4 6 4 9
13 6 21 -4 8 -10 12 -15 9 -6 -3 -17 0 -25 7 -8 7 -14 8 -12 3 2 -5 -1 -11 -6
-14 -5 -3 -10 9 -12 27 l-4 32 53 -2 c48 -2 52 0 55 22 2 15 0 21 -7 16 -6 -3
-14 1 -17 9 -3 9 -16 16 -28 16 -17 0 -19 -2 -6 -11 11 -8 7 -9 -19 -5 -29 5
-32 4 -21 -9 10 -12 10 -15 -4 -15 -9 0 -16 -7 -16 -16 0 -12 -4 -14 -12 -7
-16 13 -104 8 -101 -5 3 -11 -100 -8 -118 4 -9 5 -10 2 -6 -9 4 -12 1 -17 -11
-18 -55 -4 -67 -8 -83 -28 -25 -31 -101 -28 -81 3 7 12 9 18 11 42 0 8 6 12
11 9 6 -3 10 2 10 12 1 16 2 16 13 2 8 -11 26 -15 55 -13 51 3 59 8 43 28 -17
20 -6 35 19 29 17 -5 19 -1 15 33 -6 43 -26 64 -62 64 -20 0 -22 3 -16 33 7
39 20 49 54 44 19 -2 25 1 22 10 -3 7 1 13 8 13 8 1 0 9 -17 18 -72 40 -88 69
-57 100 8 8 11 22 8 32 -3 10 -1 21 4 24 6 4 8 13 5 20 -3 8 11 31 30 52 41
44 43 52 19 62 -24 9 -23 35 2 46 11 5 23 8 28 8 10 -3 9 56 -1 60 -5 2 -12
17 -16 33 -5 22 -4 26 4 15 7 -11 10 -6 10 23 0 23 -5 37 -12 37 -9 0 -9 3 1
9 11 7 12 15 5 33 -6 13 -7 42 -4 66 4 23 2 42 -3 42 -5 0 -7 7 -3 15 3 8 -3
19 -12 25 -11 6 -13 12 -7 17 6 5 10 15 10 23 0 8 4 18 9 21 5 4 5 15 1 25 -4
11 -10 28 -12 39 -2 11 -8 22 -13 23 -6 2 -8 8 -5 12 3 5 -4 26 -15 47 -11 21
-20 43 -20 50 0 7 -9 27 -19 44 -21 34 -19 81 4 109 7 8 15 32 19 53 7 37 26
52 26 20 1 -17 1 -17 11 0 5 9 17 17 25 17 8 0 17 7 20 15 4 8 12 15 20 15 9
0 14 11 14 30 0 20 7 33 21 41 16 8 18 13 9 19 -9 6 -9 9 0 15 6 4 9 13 6 21
-3 8 1 14 9 14 9 0 12 6 9 15 -3 8 -11 13 -17 12 -7 -1 -12 9 -12 23 0 22 4
25 34 25 29 0 35 4 36 25 2 14 -8 40 -22 58 -14 18 -22 40 -19 48 5 14 -6 23
-37 28 -8 1 -21 7 -29 14 -8 6 -18 9 -21 5 -4 -3 -7 0 -7 8 0 8 -11 15 -26 16
-42 2 -49 17 -28 60 11 21 26 38 34 39 20 0 53 15 61 26 3 5 19 2 35 -6 16 -8
48 -18 71 -24 38 -8 44 -7 57 12 8 12 24 31 36 44 19 20 20 24 6 38 -9 8 -16
19 -16 24 0 5 -10 12 -22 16 -13 4 -47 29 -76 55 -30 27 -60 49 -68 49 -8 0
-14 5 -14 10 0 6 -7 10 -15 10 -14 0 -19 12 -16 33 0 4 -3 7 -9 7 -15 0 -6 41
12 54 8 6 13 16 11 22 -2 7 15 14 43 18 26 3 53 11 60 17 10 8 14 8 14 1 0 -7
19 -11 50 -9 28 1 50 -1 50 -5 0 -5 0 -10 0 -13 0 -3 -2 -4 -3 -2 -2 1 -12 -5
-22 -13 -11 -8 -16 -10 -12 -4 4 7 -4 9 -24 6 -29 -4 -41 -21 -16 -23 6 -1 23
-3 37 -4 14 -2 30 1 35 5 10 8 16 10 34 10 5 0 12 7 15 16 4 12 2 15 -9 10 -9
-3 -15 0 -15 9 0 8 4 15 8 15 12 0 8 36 -7 53 -9 12 -9 16 1 20 7 2 1 8 -14
12 -16 4 -28 13 -28 19 0 7 -14 25 -32 42 -17 16 -27 22 -23 14 4 -8 -13 5
-39 30 -25 24 -46 40 -46 35 0 -6 -4 -4 -9 3 -5 8 -33 15 -71 17 -58 4 -95 19
-86 34 3 4 -4 8 -16 8 -22 2 -68 50 -68 72 0 8 -6 11 -15 7 -9 -3 -15 0 -15 8
0 14 -46 57 -54 49 -2 -3 -20 2 -38 12 -57 29 -92 28 -122 -2 -18 -18 -24 -21
-20 -9 4 10 3 21 -3 25 -15 9 -42 101 -32 107 5 3 7 9 4 14 -3 5 9 23 27 41
18 17 28 29 22 26 -7 -4 -10 14 -9 56 3 114 4 123 15 107 5 -8 12 -12 15 -8 3
3 -1 13 -9 21 -9 8 -12 17 -6 19 11 4 -7 85 -23 106 -8 10 -7 16 3 22 7 4 11
17 7 29 -3 12 -1 21 3 21 5 0 10 15 12 33 2 17 8 32 13 33 6 0 17 3 25 7 32
12 45 14 55 7 6 -4 29 -5 52 -4z m-681 -1257 c9 -11 15 -22 11 -25 -3 -3 5
-25 18 -49 13 -23 22 -45 19 -48 -6 -6 25 -78 37 -87 3 -3 10 -16 14 -30 10
-31 94 -150 106 -150 5 0 9 -4 9 -10 0 -11 37 -50 46 -49 3 0 19 -11 37 -25
17 -14 34 -26 37 -26 4 0 12 -11 18 -25 6 -14 19 -25 27 -25 12 0 15 -6 10
-20 -5 -15 0 -22 20 -30 18 -7 25 -15 21 -26 -3 -8 1 -17 9 -20 7 -3 11 -12 8
-21 -5 -12 -1 -14 18 -8 23 7 23 6 5 -7 -15 -12 -18 -22 -13 -46 5 -22 2 -36
-9 -44 -8 -7 -27 -26 -42 -41 -16 -15 -38 -29 -51 -30 -23 -1 -23 -3 -17 -72
4 -38 9 -82 10 -97 2 -15 1 -26 -3 -25 -7 2 -11 -7 -11 -24 0 -6 8 -8 19 -4
11 3 24 -1 32 -12 12 -14 12 -16 0 -9 -9 6 -12 5 -9 -5 2 -7 15 -16 29 -20 13
-4 18 -7 10 -8 -10 -1 -8 -7 7 -20 12 -10 19 -21 15 -25 -3 -3 -1 -6 5 -6 7 0
12 -6 12 -13 0 -8 12 -19 26 -25 14 -7 23 -16 20 -21 -6 -9 22 -26 37 -23 4 1
12 -8 18 -20 5 -13 16 -34 24 -48 13 -23 13 -25 -7 -33 -24 -8 -85 8 -90 25
-3 8 -10 7 -26 -1 -14 -8 -22 -8 -22 -1 0 21 -20 9 -21 -12 -1 -17 -2 -19 -6
-5 -2 9 -11 17 -19 17 -8 0 -14 9 -14 20 0 11 -4 20 -10 20 -5 0 -7 6 -4 14 3
7 -2 16 -11 20 -9 3 -13 2 -10 -4 3 -6 -1 -10 -9 -10 -10 0 -14 9 -13 28 2 21
-2 26 -15 24 -11 -2 -18 3 -18 14 0 10 -5 14 -15 10 -11 -4 -15 2 -15 24 0 17
-4 30 -10 30 -5 0 -28 20 -52 44 -24 24 -54 47 -67 51 -37 11 -98 8 -129 -8
-29 -14 -56 -12 -46 4 3 5 -1 12 -10 15 -8 3 -12 12 -9 20 3 8 1 14 -5 14 -5
0 -13 12 -17 28 -3 15 -14 35 -22 45 -9 9 -13 17 -9 17 4 0 -2 13 -13 28 -21
31 -30 99 -16 122 5 8 10 26 11 40 10 101 11 141 3 145 -8 6 -5 65 6 125 3 14
6 44 7 67 1 23 5 40 10 37 4 -3 8 1 9 8 0 7 3 24 6 38 9 49 11 150 2 144 -11
-7 -11 -1 0 30 6 13 6 37 2 53 -10 36 6 104 20 82 7 -12 9 -11 9 2 0 22 43 14
66 -12z m960 -29 c44 -22 63 -44 50 -57 -3 -4 -16 -1 -29 6 -13 7 -30 13 -39
15 -10 1 -26 10 -36 19 -11 10 -26 15 -35 12 -8 -4 -18 -1 -23 6 -5 8 -3 10 6
4 10 -6 12 -4 7 9 -6 14 -2 16 23 12 17 -2 51 -14 76 -26z m-50 -111 c15 -12
2 -49 -16 -49 -11 0 -60 52 -60 64 0 11 59 0 76 -15z m-6 -360 c0 -5 4 -8 9
-4 18 10 24 -17 8 -33 -13 -13 -21 -13 -42 -4 -22 10 -24 14 -13 32 14 21 38
27 38 9z m155 -19 c7 -12 -2 -12 -30 0 -19 8 -19 9 2 9 12 1 25 -3 28 -9z
m-2698 -74 c-3 -30 1 -98 9 -152 8 -55 19 -175 24 -268 19 -341 21 -351 98
-415 42 -36 51 -49 55 -84 41 -340 126 -584 288 -829 89 -135 134 -192 229
-291 87 -90 96 -104 82 -123 -6 -10 -273 -179 -317 -202 -11 -5 -103 -13 -205
-16 -202 -8 -251 -13 -229 -26 11 -7 10 -13 -5 -28 -23 -26 -8 -35 47 -28 65
9 257 16 257 10 0 -18 -123 -145 -145 -149 -11 -2 -20 -4 -20 -5 0 -1 -22 -3
-50 -5 -110 -9 -171 -15 -201 -21 -22 -4 -31 -2 -32 8 -14 118 -14 125 3 141
10 11 33 17 61 17 24 0 44 5 44 10 0 13 -118 11 -126 -2 -8 -13 -61 -9 -74 6
-6 8 -18 12 -26 9 -8 -3 -22 -2 -31 2 -16 7 -15 9 5 14 29 8 30 24 1 31 -12 3
-23 12 -24 20 -1 8 -5 173 -9 365 -4 193 -13 609 -21 925 -8 316 -17 697 -20
847 l-6 271 53 6 c29 3 67 8 83 9 17 2 70 5 119 6 l89 1 -6 -54z m1943 -671
c0 -8 -6 -15 -14 -15 -20 0 -29 17 -14 23 22 9 28 7 28 -8z m51 -40 c5 4 9 1
9 -5 0 -7 -7 -9 -16 -6 -9 3 -20 6 -26 6 -6 0 -4 7 3 17 13 15 14 15 17 -1 2
-9 8 -14 13 -11z m-91 -56 c0 -5 -10 -8 -22 -8 -18 1 -19 2 -5 6 9 2 14 9 11
15 -4 7 -2 8 4 4 7 -4 12 -11 12 -17z m4626 -244 c-1 -19 2 -35 5 -35 4 0 6
-11 5 -24 -2 -38 -17 -14 -21 34 -4 39 0 60 10 60 1 0 2 -16 1 -35z m-4049
-62 c1 -24 1 -25 -7 -8 -11 26 -12 35 -2 35 4 0 8 -12 9 -27z m-575 -126 c11
-3 17 -10 14 -16 -5 -7 3 -9 23 -5 20 4 39 1 55 -10 14 -9 33 -13 42 -9 14 5
16 2 12 -21 -4 -22 -1 -27 19 -32 l24 -6 -21 -24 c-13 -13 -29 -20 -39 -17
-11 4 -10 1 4 -10 18 -13 19 -19 8 -46 -8 -24 -8 -31 0 -31 8 0 7 -3 -2 -9 -9
-6 -10 -11 -2 -15 20 -13 13 -39 -9 -33 -15 4 -20 0 -20 -14 0 -14 -7 -19 -26
-19 -14 0 -22 4 -19 10 8 14 -40 60 -63 60 -10 0 -33 -5 -51 -11 -37 -13 -70
4 -51 26 6 7 7 16 2 19 -5 3 -7 19 -4 36 2 17 -2 37 -9 47 -11 13 -11 17 -1
20 26 9 10 21 -30 21 -24 1 -50 2 -58 5 -35 8 -60 19 -60 25 1 11 50 44 50 33
0 -12 41 -1 58 15 6 7 12 17 12 23 0 5 21 13 48 16 26 4 52 8 57 9 6 2 11 -5
13 -15 2 -9 12 -19 24 -22z m-132 -126 c0 -5 -7 -12 -16 -15 -14 -5 -15 -4 -4
9 14 17 20 19 20 6z m973 -357 c22 -4 37 -12 37 -20 0 -17 -17 -18 -23 -1 -3
7 -6 5 -6 -5 -1 -21 -21 -24 -21 -4 0 8 -12 19 -27 24 -32 12 -14 14 40 6z
m-103 -14 c0 -5 -4 -10 -10 -10 -5 0 -10 5 -10 10 0 6 5 10 10 10 6 0 10 -4
10 -10z m76 -11 c4 -7 1 -10 -7 -7 -8 3 -25 -4 -38 -16 -21 -18 -23 -19 -18
-3 4 10 7 23 7 28 0 13 47 11 56 -2z m-436 -9 c0 -5 10 -9 22 -7 15 1 23 -4
26 -17 3 -14 0 -17 -12 -13 -9 4 -15 2 -13 -2 2 -10 -2 -11 -30 -11 -15 0 -15
2 -4 9 11 7 10 12 -8 22 -26 17 -27 29 -1 29 11 0 20 -4 20 -10z m252 -22 c-7
-7 -12 -8 -12 -2 0 14 12 26 19 19 2 -3 -1 -11 -7 -17z m58 12 c0 -5 -2 -10
-4 -10 -3 0 -8 5 -11 10 -3 6 -1 10 4 10 6 0 11 -4 11 -10z m-483 -64 c-4 -10
4 -17 24 -21 16 -4 27 -11 23 -16 -3 -5 -9 -7 -14 -4 -5 3 -11 2 -14 -3 -3 -5
10 -15 29 -22 19 -8 35 -18 35 -23 0 -5 6 -4 13 2 8 6 17 8 20 4 4 -3 -1 -12
-11 -19 -19 -15 -102 -19 -102 -5 0 15 -54 23 -83 12 -22 -9 -27 -8 -27 5 0 9
9 18 21 21 12 4 18 11 15 20 -3 8 -6 17 -6 19 0 2 -7 4 -16 4 -33 0 -5 25 31
27 21 1 40 5 43 8 11 11 24 4 19 -9z m4418 -406 c-3 -5 -11 -10 -16 -10 -6 0
-7 5 -4 10 3 6 11 10 16 10 6 0 7 -4 4 -10z m131 -11 c7 -11 -27 -11 -45 0 -9
6 -5 9 13 9 15 0 29 -4 32 -9z m74 -21 c0 -10 2 -10 8 0 10 15 38 6 46 -15 5
-12 1 -14 -21 -8 -31 7 -66 35 -45 35 7 0 12 -6 12 -12z m-4322 -60 c-7 -19
-38 -22 -38 -4 0 10 9 16 21 16 12 0 19 -5 17 -12z m4720 -53 c-8 -8 -67 -12
-78 -5 -8 5 6 8 34 8 26 0 46 -1 44 -3z m82 -15 c0 -13 -11 -13 -30 0 -12 8
-11 10 8 10 12 0 22 -4 22 -10z m-5065 -100 c-10 -11 -22 -20 -28 -20 -5 0
-22 -10 -39 -21 -35 -25 -96 -35 -77 -13 14 17 127 74 147 74 12 0 12 -4 -3
-20z m5775 -40 c0 -5 -4 -10 -10 -10 -5 0 -10 5 -10 10 0 6 5 10 10 10 6 0 10
-4 10 -10z m86 -18 c1 -7 0 -8 -2 -3 -3 6 -12 7 -21 4 -11 -4 -14 -3 -9 6 9
14 29 10 32 -7z m317 -162 c-7 -8 -22 24 -16 34 4 5 10 1 13 -10 4 -10 6 -21
3 -24z m-193 -37 c0 -8 -7 -16 -15 -19 -23 -9 -45 3 -39 20 7 19 54 17 54 -1z
m320 -134 c0 -6 -4 -7 -10 -4 -5 3 -10 11 -10 16 0 6 5 7 10 4 6 -3 10 -11 10
-16z m-10923 -1025 c-3 -3 -12 -4 -19 -1 -8 3 -5 6 6 6 11 1 17 -2 13 -5z
m891 -428 c19 -12 -4 -36 -35 -36 -13 0 -31 -7 -40 -15 -8 -8 -19 -12 -25 -9
-7 4 -8 2 -4 -4 4 -7 1 -12 -8 -12 -9 0 -16 -4 -16 -10 0 -28 222 17 325 65
81 39 109 28 67 -26 -11 -13 -22 -35 -25 -49 -4 -14 -18 -38 -33 -53 -14 -16
-24 -31 -21 -33 9 -9 73 23 109 55 20 17 43 31 52 31 22 0 20 -32 -4 -63 -25
-31 -25 -33 1 -40 26 -7 21 -25 -14 -51 -23 -17 -46 -20 -207 -23 -100 -2
-205 -9 -235 -15 -55 -11 -85 -7 -85 12 0 5 7 10 15 10 8 0 19 9 25 21 12 21
11 21 -99 16 -61 -3 -115 -8 -121 -12 -6 -4 -5 9 4 29 10 24 11 36 4 38 -12 4
-14 11 -24 63 -8 43 39 96 97 111 48 13 276 13 297 0z"/>
<path d="M6455 7200 c-3 -5 -1 -10 4 -10 6 0 11 5 11 10 0 6 -2 10 -4 10 -3 0
-8 -4 -11 -10z"/>
<path d="M7183 6418 c1 -7 -7 -13 -18 -13 -17 0 -20 -7 -19 -45 0 -25 6 -46
13 -48 6 -2 10 2 9 9 -2 9 12 15 40 19 27 4 42 3 42 -4 0 -6 6 -2 12 8 8 15 7
21 -6 28 -9 5 -14 14 -10 19 3 5 0 17 -7 25 -10 12 -14 12 -20 2 -7 -10 -9
-10 -9 0 0 6 -7 12 -15 12 -8 0 -14 -6 -12 -12z"/>
<path d="M6790 5510 c0 -5 5 -10 11 -10 5 0 7 5 4 10 -3 6 -8 10 -11 10 -2 0
-4 -4 -4 -10z"/>
<path d="M6891 4664 c0 -11 3 -14 6 -6 3 7 2 16 -1 19 -3 4 -6 -2 -5 -13z"/>
<path d="M6900 4400 c0 -5 5 -10 11 -10 5 0 7 5 4 10 -3 6 -8 10 -11 10 -2 0
-4 -4 -4 -10z"/>
<path d="M6855 4380 c3 -5 10 -10 16 -10 5 0 9 5 9 10 0 6 -7 10 -16 10 -8 0
-12 -4 -9 -10z"/>
<path d="M7237 4294 c5 -14 1 -15 -25 -9 -35 7 -45 -9 -12 -20 26 -8 61 11 54
30 -4 8 -10 15 -15 15 -4 0 -6 -7 -2 -16z"/>
<path d="M6917 3644 c-8 -8 3 -34 15 -34 6 0 8 6 5 14 -3 8 -1 17 6 20 7 2 6
5 -4 5 -9 1 -18 -2 -22 -5z"/>
<path d="M6270 4590 c0 -5 7 -10 16 -10 8 0 12 5 9 10 -3 6 -10 10 -16 10 -5
0 -9 -4 -9 -10z"/>
<path d="M6204 4557 c-16 -9 -19 -43 -5 -52 5 -3 12 -1 16 5 9 15 25 12 19 -4
-3 -8 1 -17 8 -22 7 -4 10 -4 6 1 -11 12 11 35 28 28 8 -3 14 -1 14 5 0 5 -12
13 -26 16 -25 7 -25 8 -8 21 17 12 17 13 -9 12 -16 -1 -35 -6 -43 -10z"/>
<path d="M2798 1427 c-71 -17 -128 -35 -128 -39 0 -30 233 27 255 62 3 5 5 9
3 9 -2 -1 -60 -15 -130 -32z"/>
<path d="M2505 1359 c-10 -15 1 -22 24 -14 12 3 19 11 16 16 -8 12 -32 11 -40
-2z"/>
<path d="M2180 142 c0 -4 -16 -16 -35 -26 -33 -18 -35 -22 -35 -69 l0 -50 42
7 c23 4 46 12 50 19 16 25 5 127 -13 127 -5 0 -9 -3 -9 -8z"/>
</g>
</svg>
